<?xml version="1.0" encoding="utf-8"?>
<?xml-stylesheet type="text/xsl" href="rss1.xsl"?>
<rss version="2.0" xmlns:atom="http://www.w3.org/2005/Atom" xmlns:content="http://purl.org/rss/1.0/modules/content/" xmlns:dc="http://purl.org/dc/elements/1.1/" xmlns:media="http://search.yahoo.com/mrss/">
<channel>
 <title>Getty</title>
 <link>http://www.gettyimg.com/</link>
 <atom:link href="http://www.gettyimg.com/" rel="self" type="application/rss+xml" />

 
                <item>
                <title><![CDATA[【Albums (lossless)】FLAC - If Not for Me - Everything You Wanted (2024)]]></title>
                <link><![CDATA[https://sharemania.us/threads/if-not-for-me-everything-you-wanted-2024.242153/]]></link>
                <description><![CDATA[<article>
<blockquote class="messageText SelectQuoteContainer ugc baseHtml">
Can Anyone find this album in 24bit please???????
<div class="messageTextEndMarker">&nbsp;</div>
</blockquote>
</article>]]></description>
                <author><![CDATA[DiMonteiro]]></author>
                </item>

                
                <item>
                <title><![CDATA[【Singles (lossy)】Dolby Atmos - XG &amp; VALORANT - UNDEFEATED [E-AC3-JOC | 16bits/48kHz | 5.1 | 768kbits]]]></title>
                <link><![CDATA[https://sharemania.us/threads/xg-valorant-undefeated-e-ac3-joc-16bits-48khz-5-1-768kbits.242148/]]></link>
                <description><![CDATA[<article>
<blockquote class="messageText SelectQuoteContainer ugc baseHtml">
<img src="https://i.ibb.co/LR8jLMy/P840414775-Anull-video-gr698-sdr-2160x2160-ezgif-com-optimize.gif" class="bbCodeImage LbImage" alt="[​IMG]" data-url="https://i.ibb.co/LR8jLMy/P840414775-Anull-video-gr698-sdr-2160x2160-ezgif-com-optimize.gif" style=""> <br>
<b><span style="font-family: 'Book Antiqua'"><br>
Artist</span></b><span style="font-family: 'Book Antiqua'">: XG &amp; VALORANT<br>
<b>Single</b>: UNDEFEATED <br>
<b>Release</b>: 12/04/2024</span><br>
<b><span style="font-family: 'Book Antiqua'">Format</span></b><span style="font-family: 'Book Antiqua'">: .m4a Enhanced AC-3 with Joint Object Coding<br>
<b>Sample Rate</b>: 768 Kbps, 48.000 kHz - 5.1 Surround Sound<br>
<b>Quality</b>: High Quality, Lossy Audio, Apple Core Media Audio<br>
<b>Source</b>: <a href="https://music.apple.com/us/album/undefeated-single/1737281141" target="_blank" class="externalLink" rel="nofollow">Apple Music</a><br>
</span><br>
<div class="bbCodeBlock bbCodeVfcHH HiddenContent">
<div class="attribution type">Hidden Content:</div>
<blockquote>You must reply before you can see the hidden data contained here.</blockquote>
</div>
<div class="messageTextEndMarker">&nbsp;</div>
</blockquote>
</article>]]></description>
                <author><![CDATA[SonMaxime]]></author>
                </item>

                
                <item>
                <title><![CDATA[【Apple Music】WEB-RiP - Ariana Grande - yes, and? [Apple HD Music Video]]]></title>
                <link><![CDATA[https://sharemania.us/threads/ariana-grande-yes-and-apple-hd-music-video.242140/]]></link>
                <description><![CDATA[<article>
<blockquote class="messageText SelectQuoteContainer ugc baseHtml">
<span style="font-size: 22px"><b>Ariana Grande - yes, and? [Apple HD Music Video]</b></span><br>
<br>
<img src="https://imgur.com/iOaZKuL.jpg" class="bbCodeImage LbImage" alt="[​IMG]" data-url="https://imgur.com/iOaZKuL.jpg" style=""><br>
<br>
<div class="bbCodeBlock bbCodeCode">
<div class="type">Code:</div>
<pre>General
Format                         : MPEG-4
Codec ID                       : M4V  (isom/iso4/M4V /mp42)
File size                      : 224 MiB
Duration                       : 4 min 34 s
Overall bit rate mode          : Variable
Overall bit rate               : 6 842 kb/s
Movie name                     : yes, and?
Performer                      : Ariana Grande
Genre                          : Pop
ContentType                    : Music Video
Recorded date                  : UTC 2024-01-12 08:00:00
Encoded date                   : UTC 2024-03-12 17:43:46
Tagged date                    : UTC 2024-03-12 17:43:46
Copyright                      : ℗ 2024 Republic Records, a division of UMG Recordings, Inc.
Cover                          : Yes
Rating                         : Explicit
GenreID                        : 1614
AppleStoreCountry              : Canada
AlbumTitleID                   : 412778295
AppleStoreCatalogID            : 1725424454

Video
ID                             : 2
Format                         : AVC
Format/Info                    : Advanced Video Codec
Format profile                 : High@L4
Format settings                : CABAC / 5 Ref Frames
Format settings, CABAC         : Yes
Format settings, Reference fra : 5 frames
Codec ID                       : avc1
Codec ID/Info                  : Advanced Video Coding
Duration                       : 4 min 34 s
Duration_FirstFrame            : 42 ms
Bit rate                       : 6 560 kb/s
Maximum bit rate               : 13.1 Mb/s
Width                          : 1 438 pixels
Height                         : 1 080 pixels
Display aspect ratio           : 4:3
Frame rate mode                : Constant
Frame rate                     : 23.976 (24000/1001) FPS
Color space                    : YUV
Chroma subsampling             : 4:2:0
Bit depth                      : 8 bits
Scan type                      : Progressive
Bits/(Pixel*Frame)             : 0.176
Stream size                    : 214 MiB (96%)
Title                          : Core Media Video
Language                       : English
Encoded date                   : UTC 2024-02-14 01:26:28
Tagged date                    : UTC 2024-03-12 17:43:51
Color range                    : Limited
Color primaries                : BT.709
Transfer characteristics       : BT.709
Matrix coefficients            : BT.709
Codec configuration box        : avcC

Audio
ID                             : 1
Format                         : AAC LC
Format/Info                    : Advanced Audio Codec Low Complexity
Codec ID                       : mp4a-40-2
Duration                       : 4 min 34 s
Duration_LastFrame             : -19 ms
Bit rate mode                  : Variable
Bit rate                       : 265 kb/s
Maximum bit rate               : 437 kb/s
Channel(s)                     : 2 channels
Channel layout                 : L R
Sampling rate                  : 48.0 kHz
Frame rate                     : 46.875 FPS (1024 SPF)
Compression mode               : Lossy
Stream size                    : 8.75 MiB (4%)
Title                          : Core Media Audio
Encoded date                   : UTC 2024-02-14 01:26:01
Tagged date                    : UTC 2024-03-12 17:43:51

Text
ID                             : 3
Format                         : EIA-608
Codec ID                       : c608
Duration                       : 4 min 26 s
Bit rate mode                  : Variable
Bit rate                       : 130 b/s
Maximum bit rate               : 1 056 b/s
Frame rate                     : 0.383 FPS
Stream size                    : 4.23 KiB (0%)
Title                          : Core Media Closed Caption
Language                       : English
Forced                         : No
Encoded date                   : UTC 2024-02-14 01:26:28
Tagged date                    : UTC 2024-03-12 17:43:51
</pre>
</div>
<div class="bbCodeBlock bbCodeVfcHH HiddenContent">
<div class="attribution type">Hidden Content:</div>
<blockquote>You must reply before you can see the hidden data contained here.</blockquote>
</div>
<div class="messageTextEndMarker">&nbsp;</div>
</blockquote>
</article>]]></description>
                <author><![CDATA[abby0511]]></author>
                </item>

                
                <item>
                <title><![CDATA[【Apple Music】WEB-RiP - Ariana Grande - we can't be friends (wait for your love) [Apple HD Music Video]]]></title>
                <link><![CDATA[https://sharemania.us/threads/ariana-grande-we-cant-be-friends-wait-for-your-love-apple-hd-music-video.242147/]]></link>
                <description><![CDATA[<article>
<blockquote class="messageText SelectQuoteContainer ugc baseHtml">
Thank you!
<div class="messageTextEndMarker">&nbsp;</div>
</blockquote>
</article>]]></description>
                <author><![CDATA[abby0511]]></author>
                </item>

                
                <item>
                <title><![CDATA[【Singles (lossless)】ALAC - XG &amp; VALORANT - UNDEFEATED [Apple LAC | 24bit/96 kHz | 2 956 kb/s | Apple Music Quality]]]></title>
                <link><![CDATA[https://sharemania.us/threads/xg-valorant-undefeated-apple-lac-24bit-96-khz-2-956-kb-s-apple-music-quality.242149/]]></link>
                <description><![CDATA[<article>
<blockquote class="messageText SelectQuoteContainer ugc baseHtml">
<span style="font-size: 22px"><b>Ariana Grande - we can't be friends (wait for your love) [Apple HD Music Video]</b></span><br>
<br>
<img src="https://imgur.com/Js54im5.jpg" class="bbCodeImage LbImage" alt="[​IMG]" data-url="https://imgur.com/Js54im5.jpg" style=""><br>
<br>
<div class="bbCodeBlock bbCodeCode">
<div class="type">Code:</div>
<pre>General
Format                         : MPEG-4
Codec ID                       : M4V  (isom/iso4/M4V /mp42)
File size                      : 234 MiB
Duration                       : 4 min 43 s
Overall bit rate mode          : Variable
Overall bit rate               : 6 936 kb/s
Movie name                     : we can't be friends (wait for your love)
Performer                      : Ariana Grande
Genre                          : Pop
ContentType                    : Music Video
Recorded date                  : UTC 2024-03-08 08:00:00
Encoded date                   : UTC 2024-03-11 18:09:43
Tagged date                    : UTC 2024-03-11 18:09:43
Copyright                      : ℗ 2024 Republic Records, a division of UMG Recordings, Inc.
Cover                          : Yes
Rating                         : None
GenreID                        : 1614
AppleStoreCountry              : Canada
AlbumTitleID                   : 412778295
AppleStoreCatalogID            : 1734866871

Video
ID                             : 2
Format                         : AVC
Format/Info                    : Advanced Video Codec
Format profile                 : High@L4
Format settings                : CABAC / 4 Ref Frames
Format settings, CABAC         : Yes
Format settings, Reference fra : 4 frames
Codec ID                       : avc1
Codec ID/Info                  : Advanced Video Coding
Duration                       : 4 min 43 s
Bit rate                       : 6 652 kb/s
Maximum bit rate               : 17.2 Mb/s
Width                          : 1 920 pixels
Height                         : 1 080 pixels
Display aspect ratio           : 16:9
Frame rate mode                : Constant
Frame rate                     : 23.976 (24000/1001) FPS
Color space                    : YUV
Chroma subsampling             : 4:2:0
Bit depth                      : 8 bits
Scan type                      : Progressive
Bits/(Pixel*Frame)             : 0.134
Stream size                    : 224 MiB (96%)
Title                          : Core Media Video
Language                       : English
Encoded date                   : UTC 2024-03-08 00:01:17
Tagged date                    : UTC 2024-03-11 18:09:54
Color range                    : Limited
Color primaries                : BT.709
Transfer characteristics       : BT.709
Matrix coefficients            : BT.709
Codec configuration box        : avcC

Audio
ID                             : 1
Format                         : AAC LC
Format/Info                    : Advanced Audio Codec Low Complexity
Codec ID                       : mp4a-40-2
Duration                       : 4 min 43 s
Duration_LastFrame             : -9 ms
Bit rate mode                  : Variable
Bit rate                       : 271 kb/s
Maximum bit rate               : 319 kb/s
Channel(s)                     : 2 channels
Channel layout                 : L R
Sampling rate                  : 48.0 kHz
Frame rate                     : 46.875 FPS (1024 SPF)
Compression mode               : Lossy
Stream size                    : 9.14 MiB (4%)
Title                          : Core Media Audio
Encoded date                   : UTC 2024-03-07 23:51:47
Tagged date                    : UTC 2024-03-11 18:09:54

Text
ID                             : 3
Format                         : EIA-608
Codec ID                       : c608
Duration                       : 4 min 38 s
Bit rate mode                  : Variable
Bit rate                       : 113 b/s
Maximum bit rate               : 1 024 b/s
Frame rate                     : 0.380 FPS
Stream size                    : 3.85 KiB (0%)
Title                          : Core Media Closed Caption
Language                       : English
Forced                         : No
Encoded date                   : UTC 2024-03-08 00:01:17
Tagged date                    : UTC 2024-03-11 18:09:54
</pre>
</div>
<div class="bbCodeBlock bbCodeVfcHH HiddenContent">
<div class="attribution type">Hidden Content:</div>
<blockquote>You must reply before you can see the hidden data contained here.</blockquote>
</div>
<div class="messageTextEndMarker">&nbsp;</div>
</blockquote>
</article>]]></description>
                <author><![CDATA[SonMaxime]]></author>
                </item>

                
                <item>
                <title><![CDATA[【Apple Music】WEB-RiP - Future, Metro Boomin &amp; The Weeknd - We Still Don't Trust You [Apple HD Music Video]]]></title>
                <link><![CDATA[https://sharemania.us/threads/future-metro-boomin-the-weeknd-we-still-dont-trust-you-apple-hd-music-video.242152/]]></link>
                <description><![CDATA[<article>
<blockquote class="messageText SelectQuoteContainer ugc baseHtml">
<img src="https://i.ibb.co/LR8jLMy/P840414775-Anull-video-gr698-sdr-2160x2160-ezgif-com-optimize.gif" class="bbCodeImage LbImage" alt="[​IMG]" data-url="https://i.ibb.co/LR8jLMy/P840414775-Anull-video-gr698-sdr-2160x2160-ezgif-com-optimize.gif" style=""><br>
<br>
<span style="font-size: 15px"><b><span style="font-family: 'Book Antiqua'">Artist</span></b><span style="font-family: 'Book Antiqua'">: XG &amp; VALORANT</span></span><br>
<span style="font-family: 'Book Antiqua'"><span style="font-size: 15px"><b>Single</b>: UNDEFEATED<br>
<b>Release</b>: 12/04/2024</span></span><br>
<span style="font-family: 'Times New Roman'"><span style="font-size: 15px"><b><b>Format</b>: .</b>m4a Apple Lossless Audio Codec<br>
<b><b>Sample Rate</b>: </b>2 956 Kbps, 96.000 kHz - 2.0ch<br>
<b><b>Quality</b>: </b>Hi-Res Quality, Lossless Audio, Apple Core Media Audio</span></span><br>
<span style="font-family: 'Book Antiqua'"><span style="font-size: 15px"><b>Source</b>: <a href="https://music.apple.com/us/album/undefeated-single/1737281141" target="_blank" class="externalLink" rel="nofollow">Apple Music</a></span><br>
</span><br>
<div class="bbCodeBlock bbCodeVfcHH HiddenContent">
<div class="attribution type">Hidden Content:</div>
<blockquote>You must reply before you can see the hidden data contained here.</blockquote>
</div>
<div class="messageTextEndMarker">&nbsp;</div>
</blockquote>
</article>]]></description>
                <author><![CDATA[abby0511]]></author>
                </item>

                
                <item>
                <title><![CDATA[【Actresses】Anna Marie Goddard - Video Calendar (1995)720p]]></title>
                <link><![CDATA[https://sharemania.us/threads/anna-marie-goddard-video-calendar-1995-720p.242142/]]></link>
                <description><![CDATA[<article>
<blockquote class="messageText SelectQuoteContainer ugc baseHtml">
<span style="font-size: 22px"><b>Future, Metro Boomin &amp; The Weeknd - We Still Don't Trust You [Apple HD Music Video]</b></span><br>
<br>
<img src="https://imgur.com/YyiNzju.jpg" class="bbCodeImage LbImage" alt="[​IMG]" data-url="https://imgur.com/YyiNzju.jpg" style=""><br>
<br>
<div class="bbCodeBlock bbCodeCode">
<div class="type">Code:</div>
<pre>General
Format                         : MPEG-4
Codec ID                       : M4V  (isom/iso4/M4V /mp42)
File size                      : 333 MiB
Duration                       : 4 min 25 s
Overall bit rate mode          : Variable
Overall bit rate               : 10.5 Mb/s
Movie name                     : We Still Don't Trust You (Official Music Video)
Performer                      : Future, Metro Boomin &amp; The Weeknd
Genre                          : Hip-Hop/Rap
ContentType                    : Music Video
Recorded date                  : UTC 2024-04-15 07:00:00
Encoded date                   : UTC 2024-04-13 21:34:04
Tagged date                    : UTC 2024-04-13 21:34:04
Copyright                      : ℗ (C) 2024 Wilburn Holding Co. and Boominati Worldwide, under exclusive license to Epic Records, a division of Sony Music Entertainment. With Republic Records, a division of UMG Recordings, Inc.
Cover                          : Yes
Rating                         : Explicit
GenreID                        : 1618
AppleStoreCountry              : United Kingdom
AlbumTitleID                   : 128050210
AppleStoreCatalogID            : 1741151428

Video
ID                             : 2
Format                         : AVC
Format/Info                    : Advanced Video Codec
Format profile                 : High@L4
Format settings                : CABAC / 4 Ref Frames
Format settings, CABAC         : Yes
Format settings, Reference fra : 4 frames
Codec ID                       : avc1
Codec ID/Info                  : Advanced Video Coding
Duration                       : 4 min 25 s
Bit rate                       : 10.3 Mb/s
Maximum bit rate               : 27.2 Mb/s
Width                          : 1 920 pixels
Height                         : 1 080 pixels
Display aspect ratio           : 16:9
Frame rate mode                : Constant
Frame rate                     : 23.976 (24000/1001) FPS
Color space                    : YUV
Chroma subsampling             : 4:2:0
Bit depth                      : 8 bits
Scan type                      : Progressive
Bits/(Pixel*Frame)             : 0.206
Stream size                    : 324 MiB (97%)
Title                          : Core Media Video
Encoded date                   : UTC 2024-04-13 17:55:45
Tagged date                    : UTC 2024-04-13 21:34:13
Color range                    : Limited
Color primaries                : BT.709
Transfer characteristics       : BT.709
Matrix coefficients            : BT.709
Codec configuration box        : avcC

Audio
ID                             : 1
Format                         : AAC LC
Format/Info                    : Advanced Audio Codec Low Complexity
Codec ID                       : mp4a-40-2
Duration                       : 4 min 25 s
Duration_LastFrame             : -12 ms
Bit rate mode                  : Variable
Bit rate                       : 251 kb/s
Maximum bit rate               : 339 kb/s
Channel(s)                     : 2 channels
Channel layout                 : L R
Sampling rate                  : 48.0 kHz
Frame rate                     : 46.875 FPS (1024 SPF)
Compression mode               : Lossy
Stream size                    : 7.94 MiB (2%)
Title                          : Core Media Audio
Encoded date                   : UTC 2024-04-13 17:55:09
Tagged date                    : UTC 2024-04-13 21:34:13
</pre>
</div>
<div class="bbCodeBlock bbCodeVfcHH HiddenContent">
<div class="attribution type">Hidden Content:</div>
<blockquote>You must reply before you can see the hidden data contained here.</blockquote>
</div>
<div class="messageTextEndMarker">&nbsp;</div>
</blockquote>
</article>]]></description>
                <author><![CDATA[piqeros]]></author>
                </item>

                
                <item>
                <title><![CDATA[【HD Live Performances】WEB-DL - LE SSERAFIM - Coachella 2024 - WEB-DL - H264 -1080p]]></title>
                <link><![CDATA[https://sharemania.us/threads/le-sserafim-coachella-2024-web-dl-h264-1080p.242145/]]></link>
                <description><![CDATA[<article>
<blockquote class="messageText SelectQuoteContainer ugc baseHtml">
thanks
<div class="messageTextEndMarker">&nbsp;</div>
</blockquote>
</article>]]></description>
                <author><![CDATA[WithLoveSNSD]]></author>
                </item>

                
                <item>
                <title><![CDATA[【SD】DVD - Smashing Pumpkins -1979 (1996) (Promo Only) [VOB]]]></title>
                <link><![CDATA[https://sharemania.us/threads/smashing-pumpkins-1979-1996-promo-only-vob.242151/]]></link>
                <description><![CDATA[<article>
<blockquote class="messageText SelectQuoteContainer ugc baseHtml">
Anna Marie Goddard - Video Calendar (1995)720p<br>
<br>
<a href="https://imgbox.com/LwXu8aWu" target="_blank" class="externalLink" rel="nofollow"><img src="https://thumbs2.imgbox.com/fb/59/LwXu8aWu_t.jpg" class="bbCodeImage LbImage" alt="[​IMG]" data-url="https://thumbs2.imgbox.com/fb/59/LwXu8aWu_t.jpg"></a> <a href="https://imgbox.com/ZZGk3RbT" target="_blank" class="externalLink" rel="nofollow"><img src="https://thumbs2.imgbox.com/10/a6/ZZGk3RbT_t.jpg" class="bbCodeImage LbImage" alt="[​IMG]" data-url="https://thumbs2.imgbox.com/10/a6/ZZGk3RbT_t.jpg"></a> <a href="https://imgbox.com/uQA78q6Q" target="_blank" class="externalLink" rel="nofollow"><img src="https://thumbs2.imgbox.com/60/2f/uQA78q6Q_t.jpg" class="bbCodeImage LbImage" alt="[​IMG]" data-url="https://thumbs2.imgbox.com/60/2f/uQA78q6Q_t.jpg"></a> <a href="https://imgbox.com/glwFJcUG" target="_blank" class="externalLink" rel="nofollow"><img src="https://thumbs2.imgbox.com/54/71/glwFJcUG_t.jpg" class="bbCodeImage LbImage" alt="[​IMG]" data-url="https://thumbs2.imgbox.com/54/71/glwFJcUG_t.jpg"></a> <a href="https://imgbox.com/8kIn4HGM" target="_blank" class="externalLink" rel="nofollow"><img src="https://thumbs2.imgbox.com/cf/6e/8kIn4HGM_t.jpg" class="bbCodeImage LbImage" alt="[​IMG]" data-url="https://thumbs2.imgbox.com/cf/6e/8kIn4HGM_t.jpg"></a> <a href="https://imgbox.com/wWgDpAED" target="_blank" class="externalLink" rel="nofollow"><img src="https://thumbs2.imgbox.com/fc/d2/wWgDpAED_t.jpg" class="bbCodeImage LbImage" alt="[​IMG]" data-url="https://thumbs2.imgbox.com/fc/d2/wWgDpAED_t.jpg"></a><br>
Duration: 0:03:39 Resolution: 1280x720 Format: mp4 Size: 64.3 MB<br>
<a href="https://filejoker.net/ma3ngb7bvfiu" target="_blank" class="externalLink" rel="nofollow">https://filejoker.net/ma3ngb7bvfiu</a>
<div class="messageTextEndMarker">&nbsp;</div>
</blockquote>
</article>]]></description>
                <author><![CDATA[Fan Made]]></author>
                </item>

                
                <item>
                <title><![CDATA[【SD】DVD - Gin Blossoms - Follow You Down (1996) (Promo Only) [VOB] [RARE]]]></title>
                <link><![CDATA[https://sharemania.us/threads/gin-blossoms-follow-you-down-1996-promo-only-vob-rare.242154/]]></link>
                <description><![CDATA[<article>
<blockquote class="messageText SelectQuoteContainer ugc baseHtml">
<div style="text-align: center"><img src="https://i.imgur.com/opRfZuN.jpg" class="bbCodeImage LbImage" alt="[​IMG]" data-url="https://i.imgur.com/opRfZuN.jpg" style=""> <br>
<br>
<div class="ToggleTriggerAnchor bbCodeSpoilerContainer">
<button type="button" class="button bbCodeSpoilerButton ToggleTrigger Tooltip JsOnly" data-target="> .SpoilerTarget"><span>Spoiler: <span class="SpoilerTitle">Credits</span></span></button>
<div class="SpoilerTarget bbCodeSpoilerText"><b><span style="font-family: 'Book Antiqua'"><span style="font-size: 15px"><span style="color: rgb(179, 179, 0)">Main credits </span>- <span style="color: rgb(0, 255, 0)">shrghkqud</span><br>
<span style="color: rgb(179, 179, 0)">Original Uploader</span> - <span style="color: rgb(0, 255, 0)">BYRONJANIS</span> from <span style="color: rgb(0, 128, 255)">Jpopsuki</span></span></span></b></div>
</div><br>
<div class="bbCodeBlock bbCodeVfcHH HiddenContent">
<div class="attribution type">Hidden Content:</div>
<blockquote>You must either reply or click 'Like' to see the hidden information contained here.</blockquote>
</div></div>
<div class="messageTextEndMarker">&nbsp;</div>
</blockquote>
</article>]]></description>
                <author><![CDATA[Fan Made]]></author>
                </item>

                
                <item>
                <title><![CDATA[【Singles (lossy)】M4A - Faithless - Insomnia (Remixes) [M4A ALAC 44100hz 16bps]]]></title>
                <link><![CDATA[https://sharemania.us/threads/faithless-insomnia-remixes-m4a-alac-44100hz-16bps.242150/]]></link>
                <description><![CDATA[<article>
<blockquote class="messageText SelectQuoteContainer ugc baseHtml">
Thank you
<div class="messageTextEndMarker">&nbsp;</div>
</blockquote>
</article>]]></description>
                <author><![CDATA[EvertNL]]></author>
                </item>

                
                <item>
                <title><![CDATA[【Requests】[REQ AUD] - Maroon 5 - Won't Go Home Without You (Radio Mix)]]></title>
                <link><![CDATA[https://sharemania.us/threads/maroon-5-wont-go-home-without-you-radio-mix.242146/]]></link>
                <description><![CDATA[<article>
<blockquote class="messageText SelectQuoteContainer ugc baseHtml">
thanks
<div class="messageTextEndMarker">&nbsp;</div>
</blockquote>
</article>]]></description>
                <author><![CDATA[freefresh]]></author>
                </item>

                
                <item>
                <title><![CDATA[【Albums (lossless)】FLAC - Insite - Otra Historia (DSEE HX Upscaled)]]></title>
                <link><![CDATA[https://sharemania.us/threads/insite-otra-historia-dsee-hx-upscaled.242144/]]></link>
                <description><![CDATA[<article>
<blockquote class="messageText SelectQuoteContainer ugc baseHtml">
Thanks
<div class="messageTextEndMarker">&nbsp;</div>
</blockquote>
</article>]]></description>
                <author><![CDATA[UnaTortaDeAsada]]></author>
                </item>

                
                <item>
                <title><![CDATA[【Requests】Filled - OneRepublic - Nobody [&amp;] NOTD, Riley Biederer - Under My Breath [Qobuz Hi-Res 24bits/44.1kHz]]]></title>
                <link><![CDATA[https://sharemania.us/threads/onerepublic-nobody-notd-riley-biederer-under-my-breath-qobuz-hi-res-24bits-44-1khz.242143/]]></link>
                <description><![CDATA[<article>
<blockquote class="messageText SelectQuoteContainer ugc baseHtml">
thanks
<div class="messageTextEndMarker">&nbsp;</div>
</blockquote>
</article>]]></description>
                <author><![CDATA[faceoffaith]]></author>
                </item>

                </channel></rss>